<svg height="1000" width="1000" xmlns="http://www.w3.org/2000/svg"><path d="M278.578 533.75c189.584-295.834 171.666-304.166 242.5-306.25 41.25 1.25 42.5 12.5 112.5 67.5 86.25 63.334 80 64.166 78.75 133.75-.416 83.75 5.416 77.5-61.25 108.75V396.25l-58.75-52.5V542.5l-140-1.25-1.25-157.5c-115 177.5-107.5 167.5-172.5 150zm176.25 28.75h136.25c0 31.25 10 28.75 82.5 165 76.25 140.416 77.5 130.834 33.75 211.25L518.578 600c-178.75 345.834-156.25 335.416-255 328.75l98.75-185c84.584-152.916 89.166-153.334 92.5-181.25zm101.25-431.25a70 70 0 0 1-70 70 70 70 0 0 1-70-70 70 70 0 0 1 70-70 70 70 0 0 1 70 70z"/></svg>