<svg height="1000" width="1000" xmlns="http://www.w3.org/2000/svg"><path d="M426.984 212.732c-132.566 1.293-110.084-13.694-181.406 215.52l-.031.098c-10.724-1.992-21.759-3.084-33.047-3.084-99.727 0-181 81.273-181 181 0 99.726 81.273 181 181 181s181-81.274 181-181c0-74.57-45.449-138.81-110.068-166.48 4.092-12.876 8.467-26.568 13.224-41.34 266.713 281.356 166.65 235.733 310.186 241.447 1.272-.013 2.138.003 3.394-.008 17.001 82.26 90.078 144.38 177.264 144.38 99.727 0 181-81.273 181-181 0-99.726-81.273-181-181-181-20.16 0-39.543 3.371-57.676 9.495-17.673-39.11-22.37-49.35-50.886-112.817l12.404-34.111 42.638-.775-1.55-35.66H573.506c-14.04 19.207 5.685 19.121 76.75 34.884l-12.406 34.885-317.075.775c21.362-74.595 9.304-69.944 105.434-69.771zM621.88 356.627l-89.67 240.95-220.596-240.401zm37.406 14.852l34.71 76.906c-52.211 31.663-87.25 88.962-87.48 154.242l-35.247-.102zM787.5 462.266c78.109 0 141 62.89 141 141 0 78.109-62.891 141-141 141-65.467 0-120.22-44.19-136.236-104.48 145.248.137 159.75 7.487 161.79-17.723-.182-6.651-19.421-49.127-66.728-153.717a141.78 141.78 0 0 1 41.174-6.08zm-575 3c7.096 0 14.06.533 20.87 1.535-42.296 133.406-39.594 125.821-39.87 137.465-.213 9.98 7.843 17.893 17.967 18.57 18.187-1.838 14.296.471 59.885-144.78 48.554 22.227 82.148 71.139 82.148 128.21 0 78.109-62.891 141-141 141-78.109 0-141-62.891-141-141 0-78.11 62.891-141 141-141zm498.03 19.757l53.277 118.053-117.293-.336c.18-49.438 25.563-92.7 64.015-117.717z" color="#000"/></svg>
