<svg height="1000px" width="1000px" xmlns="http://www.w3.org/2000/svg"><path d="M893.145 168.475a7.227 7.227 0 0 0-5.63 2.72l-26.09 33.143-11.374-8.945-31.739 40.078a42.48 42.48 0 0 0-9.183 26.334c0 9.013 2.854 17.787 8.19 25.017l-50.76 64.389a45.42 45.42 0 0 1-35.573 17.195c-10.198 0-20.106-3.39-28.105-9.724-5.284-4.146-9.423-9.253-12.281-14.885l-10.495-23.36 13.424-35.644 40.451-.734-1.55-35.66H573.506c-14.04 19.206 5.685 19.12 76.75 34.882l-12.406 34.887-317.075.773c21.362-74.595 9.304-69.942 105.434-69.77l.775-36.439C294.418 214.025 316.9 199.04 245.578 428.254l-.031.098c-10.724-1.992-21.759-3.084-33.047-3.084-99.727 0-181 81.273-181 181 0 99.726 81.273 181 181 181s181-81.274 181-181c0-74.57-45.45-138.81-110.068-166.48a11262.44 11262.44 0 0 1 13.224-41.34C563.37 679.802 463.306 634.18 606.842 639.894c1.272-.013 2.138.003 3.394-.008 17.001 82.26 90.078 144.379 177.264 144.379 99.727 0 181-81.273 181-181 0-99.726-81.273-181-181-181-20.16 0-39.543 3.372-57.676 9.496l-19.467-43.723.053-.064c6.638 2.134 13.574 3.193 20.578 3.193 20.866 0 40.499-9.542 53.422-25.842l50.809-64.344a42.042 42.042 0 0 0 16.433 3.33 42.478 42.478 0 0 0 33.32-16.117l31.901-39.976-11.394-9.014 26.455-33.137c.994-1.24 1.533-2.857 1.533-4.502 0-3.916-3.199-7.18-7.178-7.18-2.193 0-4.326 1.007-5.63 2.721L894.4 230.432l-21.832-17.25 26.21-33.024a7.322 7.322 0 0 0 1.548-4.51 7.155 7.155 0 0 0-7.18-7.173h-.001zM621.88 356.629l-89.67 240.95-220.598-240.401 310.268-.55zM787.5 462.268c78.109 0 141 62.89 141 141 0 78.109-62.891 141-141 141-65.467 0-120.22-44.19-136.236-104.48 47.22.044 79.573.79 103.22.993a50 50 0 0 0 33.016 12.487 50 50 0 0 0 50-50 50 50 0 0 0-50-50 50 50 0 0 0-2.924.209c-10.319-23.132-20.522-45.936-38.25-85.13a141.78 141.78 0 0 1 41.174-6.08zm-575 3c7.096 0 14.06.533 20.87 1.535-42.297 133.406-39.594 125.82-39.87 137.465-.213 9.98 7.843 17.893 17.967 18.57 18.187-1.838 14.296.47 59.885-144.781 48.554 22.227 82.148 71.14 82.148 128.21 0 78.11-62.891 141-141 141-78.109 0-141-62.89-141-141s62.891-141 141-141zm498.03 19.755l38.81 85.998A50 50 0 0 0 737.52 603l-91.006-.26c.18-49.438 25.563-92.7 64.015-117.717z"/></svg>
