<svg width="1000px" height="1000px" viewBox="0 0 1000 1000" xmlns="http://www.w3.org/2000/svg"><path d="M929.318 614.103v87.66H894.23V619.53q0-14.59-4.22-20.86-4.1-6.27-13.505-6.27-9.646 0-15.072 8.561-5.426 8.44-5.426 23.513v77.29h-35.088v-187.62h35.088v72.83q3.738-11.214 12.781-17.363 9.044-6.15 21.825-6.15 19.172 0 28.939 12.782 9.766 12.66 9.766 37.861zM759.906 521.74h26.648l-94.775 202.933h-26.647zm-173.874 58.48q3.98-8.56 10.129-12.66 6.15-4.1 15.072-4.1 17.484 0 24.116 12.058 6.752 12.058 6.752 50.16v76.085h-28.938v-86.695q0-15.073-2.291-20.137t-8.32-5.064q-6.03 0-8.44 5.185-2.412 5.185-2.412 20.016v86.695h-28.577v-86.695q0-14.831-2.412-20.016-2.411-5.185-8.44-5.185-6.03 0-8.32 5.064-2.291 5.064-2.291 20.137v86.695H512.72V566.716h25.683v13.987q3.015-7.958 9.646-12.54 6.632-4.703 14.831-4.703 8.2 0 14.952 4.944 6.753 4.823 8.2 11.817zm-210.89-66.076h35.329v98.512l42.443-45.94h42.805l-51.125 50.402 54.02 84.645h-39.068l-37.017-63.183-12.058 11.576v51.607h-35.33zM228.76 521.74h97.788v31.35h-68.97v33.4q4.34-1.687 9.284-2.41 4.944-.845 10.49-.845 26.769 0 43.409 16.881t16.64 43.89q0 28.336-18.087 44.856-17.966 16.398-49.076 16.398-11.575 0-23.392-1.93-11.816-1.928-24.115-5.787V665.47q10.008 4.944 20.498 7.476 10.61 2.412 21.222 2.412 18.81 0 28.577-7.958 9.766-8.08 9.766-23.393 0-14.107-9.766-22.548-9.647-8.56-25.804-8.56-9.526 0-19.172 2.41-9.526 2.292-19.293 6.994zM109.145 670.413h75.844v31.35H70.682v-30.385l19.292-20.499q34.365-36.535 41.72-44.975 9.043-10.37 13.023-18.328 3.979-8.079 3.979-15.916 0-12.058-7.356-18.57-7.234-6.631-20.618-6.631-9.526 0-21.463 3.858-11.817 3.738-24.719 10.973v-33.16q12.902-4.702 25.2-7.113 12.42-2.532 23.755-2.532 28.577 0 44.855 13.384 16.398 13.263 16.398 36.294 0 10.61-3.617 19.895-3.497 9.285-12.178 20.62-6.39 8.198-35.088 36.896-15.555 15.555-24.719 24.84zm457.413-379.29l-89.107 25.2 89.107 25.201v29.3L439.11 330.31v-28.335l127.45-40.274zm0 85.61v28.698H439.11v-28.698z"/></svg>
