<svg version="1" width="1000" height="1000" xmlns="http://www.w3.org/2000/svg"><path d="M355.9 243.822c-26.292 1.865-46.427 16.047-60.78 41.787 0 0-30.136 73.452-60.333 147.225a162.904 162.904 0 0 0-39.701-4.912c-90.315 0-163.883 73.827-163.582 164.133-.202 90.237 73.336 163.953 163.582 163.953 90.225 0 163.749-73.683 163.58-163.893l.006.006c0-.022-.004-.044-.004-.066 0-.023.004-.044.004-.067a20.713 20.713 0 0 0-.008-.027c.165-59.551-31.802-111.91-79.494-140.656l23.707-57.864c12.338 24.722 31.492 44.979 83.973 120.774 40.493 58.482 77.753 112.501 142.962 114.484l115.627.137c16.572 72.75 81.83 127.34 159.475 127.34 90.083 0 163.555-73.457 163.584-163.533l.002.002-.002-.028.002-.027a20.713 20.713 0 0 0-.004-.012c.202-90.237-73.336-163.953-163.582-163.953-84.548 0-154.428 64.703-162.75 147.074l-110.19 6.442c-39.157 1.586-64.259-37.301-57.943-59.13 5.47-18.904 9.797-36.726 4.582-58.794l-62.586-89.086c-6.928-8.581-13.855-9.615-20.783-11.725l-80.03-.084 20.427-49.855c5.985-16.93 13.164-22.95 22.714-22.049h78.137l.447-47.596H355.9zm279.043 119.059c-11.314 4.392-19.403 11.578-12.982 31.34l77.45 50.138c33.082-24.81 67.382-28.92 101.624-34.023l134.754-.447-.894-47.008H634.943zM195.086 469.344c8.163 0 16.127.81 23.832 2.32-22.92 56.063-43.454 106.405-44.463 109.432-11.542 37.147 31.977 46.551 43.426 19.81l45.428-110.883c32.714 21.972 54.1 59.365 53.941 101.944a20.713 20.713 0 0 0 .047.178l-.045-.045c.18 67.843-54.322 122.488-122.166 122.488S72.742 659.943 72.922 592.1a20.713 20.713 0 0 0 0-.133c-.254-67.897 54.267-122.623 122.164-122.623zm609.828.703c67.844 0 122.344 54.645 122.164 122.488a20.713 20.713 0 0 0 .02.072l-.018-.017c0 67.715-54.45 122.166-122.166 122.166a121.842 121.842 0 0 1-116.73-85.87l153.853.184.742-65.1-158.57 9.27c9.052-58.614 59.43-103.193 120.705-103.193z" color="#000"/></svg>
