<svg width="1000px" height="1000px" viewBox="0 0 1000 1000" xmlns="http://www.w3.org/2000/svg"><path d="M866.196 850.714h40.152v44.252h-40.152zM685.81 759.918h107.917v27.613l-71.02 81.028h71.02v26.407H682.917v-27.613l71.141-81.028h-68.247zm-41.961 47.387v87.66H608.76v-82.234q0-14.71-4.22-20.98-4.1-6.39-13.505-6.39-9.525 0-15.072 8.56-5.426 8.561-5.426 23.754v77.29H535.45V759.919h35.088v20.257q3.738-11.213 12.781-17.363 9.044-6.15 21.825-6.15 19.172 0 28.939 12.782 9.767 12.66 9.767 37.861zm-148.673 0v87.66h-35.088v-82.234q0-14.71-4.22-20.98-4.1-6.39-13.505-6.39-9.526 0-15.073 8.56-5.426 8.561-5.426 23.754v77.29h-35.088V759.919h35.088v20.257q3.738-11.213 12.782-17.363 9.043-6.15 21.824-6.15 19.172 0 28.939 12.782 9.767 12.66 9.767 37.861zm-144.935 81.029q-12.299 5.064-25.08 7.596-12.782 2.532-27.01 2.532-33.882 0-51.848-18.086-17.846-18.208-17.846-52.331 0-33.039 17.243-52.21 17.242-19.172 47.025-19.172 30.024 0 46.543 17.845 16.64 17.725 16.64 50.04v14.349H264.39q.12 15.916 9.405 23.754 9.285 7.837 27.733 7.837 12.179 0 23.995-3.496 11.817-3.497 24.719-11.094zm-29.903-75.964q-.242-13.987-7.235-21.101-6.873-7.235-20.378-7.235-12.178 0-19.413 7.476-7.235 7.355-8.56 20.98zm-237.54-97.427h35.571v71.14l55.707-71.14h40.273l-56.792 70.9L216.4 894.966h-39.55l-42.684-81.029-15.796 20.016v61.013H82.8zM848.35 510.008h76.085v35.088H848.35zm-130.827 44.373h40.152v44.252h-40.152zm-83.32-86.575v30.868q-9.766-6.27-20.377-9.405-10.49-3.256-21.101-3.256-11.817 0-17.846 3.497-6.029 3.376-6.029 10.128 0 9.647 25.804 15.675l1.326.362 10.129 2.412q19.292 4.582 28.215 14.83 9.043 10.13 9.043 27.493 0 20.86-13.746 31.35-13.625 10.37-41.117 10.37-12.178 0-24.96-2.17-12.78-2.05-25.924-6.27V562.82q11.696 6.632 23.754 10.129 12.179 3.497 23.513 3.497 12.42 0 18.81-3.618 6.39-3.617 6.39-10.49 0-6.753-4.581-10.37-4.462-3.617-21.463-7.717l-9.767-2.17q-20.257-4.582-29.542-14.349-9.284-9.767-9.284-26.165 0-19.534 14.108-30.386 14.107-10.852 39.67-10.852 11.455 0 22.789 1.929 11.455 1.809 22.186 5.547zm-129.38 33.038q-5.788-5.305-13.625-7.958-7.717-2.653-17.002-2.653-11.214 0-19.654 3.98-8.32 3.858-12.902 11.334-2.894 4.582-4.1 11.093-1.085 6.511-1.085 19.775v62.218h-35.33V463.585h35.33v20.981q5.185-11.576 15.917-17.846 10.731-6.39 25.08-6.39 7.235 0 14.107 1.808 6.994 1.689 13.264 5.065zm-154.581 91.157q-12.299 5.064-25.08 7.597-12.782 2.532-27.01 2.532-33.882 0-51.848-18.087-17.846-18.207-17.846-52.331 0-33.038 17.243-52.21 17.242-19.172 47.025-19.172 30.024 0 46.543 17.845 16.64 17.725 16.64 50.04v14.35H264.39q.12 15.915 9.405 23.753 9.285 7.838 27.733 7.838 12.179 0 23.995-3.497 11.817-3.497 24.719-11.093zm-29.903-75.964q-.242-13.987-7.235-21.101-6.873-7.235-20.378-7.235-12.178 0-19.413 7.476-7.235 7.355-8.56 20.98zm-177.37 52.934L174.68 418.61h35.812l-42.805 180.023H118.37L75.565 418.61h35.812zm529.277-440.062v38.344h46.181v27.13h-46.181v63.906q0 9.043 4.34 13.022 4.462 3.859 14.711 3.859h27.13v27.13h-29.662q-30.386 0-41.117-9.646-10.732-9.767-10.732-36.053v-62.218h-34.485v-27.13h34.485v-38.344zm-205.224 38.344h69.935V275.17h43.89v27.13h-123.23v-27.13h44.01v-80.787h-34.605zm34.606-65.716h35.33v41.238h-35.33zM374.9 180.757q3.98-8.56 10.129-12.66 6.15-4.1 15.072-4.1 17.484 0 24.116 12.058 6.752 12.058 6.752 50.16V302.3H402.03v-86.696q0-15.072-2.29-20.136-2.292-5.064-8.32-5.064-6.03 0-8.441 5.184-2.412 5.185-2.412 20.016V302.3H351.99v-86.696q0-14.83-2.411-20.016-2.412-5.184-8.44-5.184-6.03 0-8.32 5.064-2.292 5.064-2.292 20.136V302.3H301.59V167.253h25.683v13.987q3.014-7.959 9.646-12.54 6.632-4.703 14.831-4.703 8.2 0 14.952 4.944 6.752 4.823 8.2 11.816z"/></svg>
