<svg version="1" width="1000" height="1000" xmlns="http://www.w3.org/2000/svg"><path d="M489.473 121.287c-53.744 7.946-78.143 35.381-82.602 73.326l60.639-10.078v42.12l-59.432 8.066-.402 53.072 35.36-4.79c34.366-30.953 72.038-49.79 122.372-22.198 15.55-21.82 19.226-47.15 13.326-72.188-20.13-63.122-55.516-64.95-89.261-67.33zm29.556 137.56c-13.454-.195-25.963 3.58-37.86 9.926l-174.171 131.61c-.785-9.142-1.471-18.312-2.273-27.45-82.783 33.104-203.888 53.293-137.172 182.137 108.659 1.211 171.944 59.886 194.09 176.446 48.33 61.258 192.38 44.018 290.28 48.95C619.716 561.605 783.32 551.77 873.335 554.503c21.932-24.574 12.651-49.305 1.709-58.625l-150.266-.57c-.047-18.2-31.805-50.816-47.81-76.27l-99.037 77.408-140.018-.568c-24.855.486-32.625 15.618-36.428 34.15-43.898-16.199-66.624-38.299-79.043-63.271l150.76-115.451 96.762 134.611L670.705 410.5c-36.05-45.923-81.335-113.39-108.143-137.742-15.68-9.545-30.079-13.714-43.533-13.91zm-333.931 312.12c-84.656 0-153.79 69.308-153.594 153.955-.197 84.646 68.938 153.955 153.594 153.955 84.655 0 153.792-69.309 153.595-153.955.197-84.647-68.94-153.955-153.595-153.955zm629.804.174c-84.655 0-153.79 69.307-153.595 153.953-.197 84.646 68.94 153.957 153.595 153.957 84.656 0 153.79-69.31 153.594-153.957.196-84.646-68.939-153.953-153.594-153.953zm-629.804 52.996c55.893 0 100.586 44.818 100.43 100.71a26.587 26.587 0 0 0 0 .15c.156 55.892-44.537 100.71-100.43 100.71-55.894 0-100.585-44.818-100.428-100.71a26.587 26.587 0 0 0 0-.15c-.157-55.892 44.534-100.71 100.428-100.71zm629.804.172c55.894 0 100.585 44.817 100.428 100.71a26.587 26.587 0 0 0 0 .15c.157 55.894-44.534 100.712-100.428 100.712-55.893 0-100.586-44.818-100.43-100.711a26.587 26.587 0 0 0 0-.15c-.156-55.894 44.537-100.711 100.43-100.711z"/></svg>