<svg width="1000px" height="1000px" viewBox="0 0 1000 1000" xmlns="http://www.w3.org/2000/svg"><path d="M866.196 850.714h40.152v44.252h-40.152zM685.81 759.918h107.917v27.613l-71.02 81.028h71.02v26.407H682.917v-27.613l71.141-81.028h-68.247zm-41.961 47.387v87.66H608.76v-82.234q0-14.71-4.22-20.98-4.1-6.39-13.505-6.39-9.525 0-15.072 8.56-5.426 8.561-5.426 23.754v77.29H535.45V759.919h35.088v20.257q3.738-11.213 12.781-17.363 9.044-6.15 21.825-6.15 19.172 0 28.939 12.782 9.767 12.66 9.767 37.861zm-148.673 0v87.66h-35.088v-82.234q0-14.71-4.22-20.98-4.1-6.39-13.505-6.39-9.526 0-15.073 8.56-5.426 8.561-5.426 23.754v77.29h-35.088V759.919h35.088v20.257q3.738-11.213 12.782-17.363 9.043-6.15 21.824-6.15 19.172 0 28.939 12.782 9.767 12.66 9.767 37.861zm-144.935 81.029q-12.299 5.064-25.08 7.596-12.782 2.532-27.01 2.532-33.882 0-51.848-18.086-17.846-18.208-17.846-52.331 0-33.039 17.243-52.21 17.242-19.172 47.025-19.172 30.024 0 46.543 17.845 16.64 17.725 16.64 50.04v14.349H264.39q.12 15.916 9.405 23.754 9.285 7.837 27.733 7.837 12.179 0 23.995-3.496 11.817-3.497 24.719-11.094zm-29.903-75.964q-.242-13.987-7.235-21.101-6.873-7.235-20.378-7.235-12.178 0-19.413 7.476-7.235 7.355-8.56 20.98zm-237.54-97.427h35.571v71.14l55.707-71.14h40.273l-56.792 70.9L216.4 894.966h-39.55l-42.684-81.029-15.796 20.016v61.013H82.8zM717.524 554.38h40.152v44.252h-40.152zm-156.149-12.058v-104.18h-35.811v-27.13h71.14v131.31q0 15.916 4.944 22.548 4.944 6.632 16.76 6.632h28.216v27.13H608.52q-25.2 0-36.173-13.023-10.973-13.022-10.973-43.287zM449.237 425.242v38.343h46.181v27.13h-46.181v63.907q0 9.043 4.34 13.022 4.462 3.859 14.71 3.859h27.131v27.13h-29.662q-30.386 0-41.117-9.646-10.732-9.767-10.732-36.053v-62.219h-34.485v-27.13h34.485v-38.343zM300.564 477.09q3.979-8.56 10.128-12.66 6.15-4.1 15.073-4.1 17.483 0 24.115 12.058 6.753 12.057 6.753 50.16v76.085h-28.94v-86.696q0-15.072-2.29-20.136-2.291-5.065-8.32-5.065t-8.44 5.185q-2.412 5.185-2.412 20.016v86.696h-28.577v-86.696q0-14.83-2.412-20.016-2.411-5.185-8.44-5.185t-8.32 5.065q-2.291 5.064-2.291 20.136v86.696h-28.939V463.585h25.683v13.987q3.015-7.958 9.647-12.54 6.631-4.702 14.83-4.702 8.2 0 14.952 4.943 6.753 4.824 8.2 11.817zM153.097 535.21q-19.775 0-27.613 5.064-7.837 5.064-7.837 17.363 0 9.164 5.426 14.59t14.71 5.426q13.987 0 21.704-10.49 7.717-10.61 7.717-29.542v-2.411zm49.196-13.626v77.05h-35.089V583.56q-6.39 8.922-16.398 13.746-10.008 4.823-22.066 4.823-23.03 0-35.932-12.179-12.782-12.178-12.782-34.003 0-23.633 15.314-34.847 15.313-11.334 47.387-11.334h24.477v-5.909q0-8.56-6.27-12.901-6.15-4.462-18.207-4.462-12.66 0-24.598 3.256-11.817 3.135-24.718 10.128v-30.144q11.696-4.823 23.753-7.114 12.058-2.291 25.563-2.291 32.918 0 46.181 13.384 13.385 13.384 13.385 47.87zM672.246 128.91v38.344h46.181v27.13h-46.181v63.906q0 9.043 4.34 13.022 4.462 3.859 14.711 3.859h27.13v27.13h-29.662q-30.386 0-41.117-9.646-10.732-9.767-10.732-36.053v-62.218h-34.485v-27.13h34.485v-38.344zm-205.224 38.344h69.935V275.17h43.89v27.13h-123.23v-27.13h44.01v-80.787h-34.605zm34.606-65.716h35.33v41.238h-35.33zM374.9 180.757q3.98-8.56 10.129-12.66 6.15-4.1 15.072-4.1 17.484 0 24.116 12.058 6.752 12.058 6.752 50.16V302.3H402.03v-86.696q0-15.072-2.29-20.136-2.292-5.064-8.32-5.064-6.03 0-8.441 5.184-2.412 5.185-2.412 20.016V302.3H351.99v-86.696q0-14.83-2.411-20.016-2.412-5.184-8.44-5.184-6.03 0-8.32 5.064-2.292 5.064-2.292 20.136V302.3H301.59V167.253h25.683v13.987q3.014-7.959 9.646-12.54 6.632-4.703 14.831-4.703 8.2 0 14.952 4.944 6.752 4.823 8.2 11.816z"/></svg>
