<svg width="1000" height="1000" xmlns="http://www.w3.org/2000/svg"><path d="M967.832 469.376a40.202 40.202 0 0 0-3.414-9.893L788.623 319.9H434.9c-8.19-.503-12.626 3.37-16.521 7.878L300.15 446.228l-258.544 42.95A29.765 29.765 0 0 0 31.5 503.496l.544 88.947c5.607 14.256 9.425 12.41 13.67 14.396h49.772c0-120.923 180.14-120.46 180.14 0h459.327c0-121.177 178.778-120.93 178.778 0h40.802c6.856-.631 10.699-6.684 13.967-13.773zm-379.675-5.728H343.09c-9.329-3.68-10.591-9.258-6.71-16.046l88.107-86.943c1.986-1.688 3.55-4.013 7.002-3.501h156.668zm253.741.015h-224.63V357.177H749.07c3.45-.512 5.015 1.813 7.002 3.501l75.505 76.04c6.961 10.485 20.95 24.825 10.319 26.945zM258.242 607.006a73.117 73.117 0 0 1-146.234.055v-.055a73.117 73.117 0 1 1 146.234-.055zm638.464-.03a73.118 73.118 0 0 1-146.235.055v-.055a73.118 73.118 0 0 1 146.235-.056z"/></svg>