<svg version="1" width="1000" height="1000" xmlns="http://www.w3.org/2000/svg"><path d="M902.078 314.688l-827.846.53c-2.665-.086-3 2.157-3.623 4.112l.633 29.098h.002c4 4.304 13.676 3.644 11.99 12.924L34.828 501.06 33.5 607.135c3.315 5.796 7.009 10.837 12.428 12.426h114.326c0-107.122 159.062-107.092 159.062 0h331.047c0-106.886 163.04-107.485 163.04 0l123.273.996c10.144-3.783 20.362-5.602 29.824-27.836V474.418c-19.423-54.544-26.867-152.257-64.422-159.73zm-451.432 37.625c3.296 1.326 6.457 3.514 8.749 11.195l28.058 97.365c-.62 7.104-4.692 10.325-8.642 13.766l-99.041.244c-4.655-1.66-6.305-5.657-7.987-9.63l-28.566-97.388c-.153-6.997 1.574-12.488 6.494-15.426l100.935-.127zm140.315 0c3.296 1.326 6.457 3.514 8.75 11.195l28.059 97.365c-.621 7.104-4.695 10.325-8.645 13.766l-99.04.244c-4.654-1.66-6.305-5.657-7.987-9.63l-28.567-97.388c-.153-6.997 1.575-12.488 6.496-15.426l100.934-.127zm141.14 0c3.297 1.326 6.457 3.514 8.749 11.195l28.058 97.365c-.62 7.104-4.692 10.325-8.642 13.766l-99.041.244c-4.655-1.66-6.305-5.657-7.987-9.63l-28.568-97.388h.002c-.153-6.997 1.574-12.488 6.494-15.426l100.936-.127zm-499.074.05l76.29.127c3.296 1.326 6.456 3.517 8.75 11.197l28.056 97.366c-.62 7.105-4.692 10.323-8.643 13.765l-102.851.37c-4.654-1.66-7.576-5.403-9.258-9.374l.018-104.755c1.626-5.726 2.718-5.758 7.638-8.696zm641.342.131c3.296 1.326 6.456 3.516 8.748 11.197l28.06 97.368c-.62 7.104-4.694 10.321-8.644 13.763l-99.039.242c-4.655-1.66-6.304-5.656-7.986-9.627l-28.569-97.386v-.002c-.153-6.997 1.577-12.49 6.497-15.428l100.933-.127zm-763.252.168l83.149.309c4.92 2.937 6.648 4.296 6.494 11.293l-.18 101.341c-1.682 3.972-3.332 7.968-7.986 9.627l-116.467-.601c-3.95-3.442-8.024-6.662-8.645-13.766l34.885-97.006c2.293-7.682 5.454-9.87 8.75-11.197zm620.904 202.293a64.977 64.977 0 0 0-64.976 64.977 64.977 64.977 0 1 0 129.953 0 64.977 64.977 0 0 0-64.977-64.977zm-491.648.375a64.977 64.977 0 0 0-64.977 64.979 64.977 64.977 0 0 0 129.954 0 64.977 64.977 0 0 0-64.977-64.979z"/></svg>