<svg width="1000px" height="1000px" viewBox="0 0 1000 1000" xmlns="http://www.w3.org/2000/svg"><path d="M733.982 528.372v38.344h46.181v27.13h-46.181v63.906q0 9.044 4.34 13.023 4.462 3.858 14.711 3.858h27.13v27.13h-29.662q-30.386 0-41.117-9.646-10.732-9.767-10.732-36.053v-62.218h-34.485v-27.13h34.485v-38.344zm-208.6-6.632h97.789v31.35H554.2v33.4q4.34-1.687 9.284-2.41 4.944-.845 10.49-.845 26.769 0 43.409 16.881t16.64 43.89q0 28.336-18.087 44.856-17.966 16.398-49.075 16.398-11.576 0-23.393-1.93-11.816-1.928-24.115-5.787V665.47q10.008 4.944 20.498 7.476 10.611 2.412 21.222 2.412 18.81 0 28.577-7.958 9.767-8.08 9.767-23.393 0-14.107-9.767-22.548-9.646-8.56-25.804-8.56-9.526 0-19.172 2.41-9.525 2.292-19.292 6.994zM409.024 657.511h37.74v32.677l-23.633 46.181h-26.044l11.937-46.181zm-138.062-36.294H251.91v-31.35h19.05q13.264 0 20.5-5.185 7.354-5.305 7.354-14.831 0-10.008-7.355-15.555-7.235-5.667-20.498-5.667-10.129 0-21.704 2.532-11.576 2.532-23.995 7.356v-32.315q12.42-3.738 24.477-5.668 12.058-2.05 23.151-2.05 28.457 0 44.373 12.42 15.916 12.42 15.916 34.244 0 16.037-9.164 26.286-9.164 10.129-26.165 13.264 19.292 3.376 29.42 15.434 10.13 11.937 10.13 31.47 0 26.166-16.76 39.912-16.761 13.746-48.715 13.746-13.625 0-26.888-2.29-13.143-2.292-25.201-6.633V663.3q11.334 5.667 24.477 8.682 13.143 2.893 27.613 2.893 14.469 0 22.91-6.631 8.44-6.753 8.44-18.087 0-13.867-8.44-21.342-8.441-7.597-23.875-7.597zm167.423-327.442v-30.144l127.45 50.16v28.457l-127.45 50.04v-30.024l95.86-34.124z"/></svg>
