<svg version="1" width="1000" height="1000" xmlns="http://www.w3.org/2000/svg"><path d="M281.057 306.955l-.16 218.16 685.998-.162V307.7l-685.838-.744zM81.43 361.07L31.5 494.846v127.18c0 8.861 5.75 16.956 16.016 16.956h28.261c21.443-85.423 103.784-98.117 140.37-26.378h90.439c40.32-68.181 132.896-55.568 137.543 25.544h25.435c0-34.31-34.806-96.2-73.482-96.2h-177.11l.917-180.413-138.46-.465zm85.424 31.172l.265 82.139-118.902 12.57L81.85 392.51l85.004-.268zm560.863 150.04c-38.676 0-73.48 61.89-73.48 96.198h25.503c4.515-78.818 92.038-87.747 118.998-52.65l-.082 3.197h25.506l-.082-3.197c26.96-35.097 114.48-26.168 118.996 52.65H968.5c0-34.308-34.804-96.199-73.48-96.199H727.717zm-578.53 37.456c-31.233.235-56.383 25.705-56.226 56.938.156 31.234 25.563 56.448 56.797 56.369 31.234-.078 56.512-25.42 56.512-56.654l-.002-.57c-.314-31.233-25.847-56.319-57.08-56.083zm223.342 0c-31.233.235-56.383 25.705-56.226 56.938.156 31.234 25.56 56.448 56.795 56.369 31.234-.078 56.511-25.42 56.511-56.654l-.002-.57c-.314-31.233-25.845-56.319-57.078-56.083zm374.342 0c-31.233.235-56.383 25.705-56.226 56.938.157 31.234 25.562 56.448 56.796 56.369 31.234-.078 56.512-25.42 56.512-56.654l-.002-.57c-.315-31.233-25.847-56.319-57.08-56.083zm125.016 0c-31.233.235-56.386 25.705-56.229 56.938.157 31.234 25.563 56.448 56.797 56.369 31.234-.078 56.514-25.42 56.514-56.654l-.002-.57c-.315-31.233-25.847-56.319-57.08-56.083z"/></svg>
