<svg width="1000px" height="1000px" viewBox="0 0 1000 1000" xmlns="http://www.w3.org/2000/svg"><path d="M919.651 567.227q-12.126 4.993-24.727 7.49-12.602 2.496-26.63 2.496-33.405 0-51.119-17.832-17.594-17.95-17.594-51.594 0-32.574 17-51.476t46.364-18.902q29.601 0 45.888 17.594 16.406 17.476 16.406 49.336v14.147h-90.231q.119 15.692 9.272 23.42 9.154 7.727 27.343 7.727 12.007 0 23.657-3.448 11.65-3.447 24.371-10.937zm-29.482-74.895q-.238-13.79-7.133-20.804-6.777-7.133-20.091-7.133-12.007 0-19.14 7.37-7.133 7.252-8.44 20.686zm-152.644 12.72q0-17.832-6.776-28.531-6.777-10.818-17.833-10.818-10.937 0-17.713 10.7-6.657 10.698-6.657 28.65 0 18.07 6.657 28.769 6.776 10.7 17.713 10.7 11.056 0 17.833-10.7 6.776-10.818 6.776-28.77zm34.832 58.728q0 31.979-14.503 46.126-14.385 14.266-46.84 14.266-10.937 0-21.636-1.665-10.7-1.545-21.755-4.874v-31.979q9.867 5.469 20.09 8.084 10.224 2.615 21.043 2.615 14.74 0 21.755-7.014 7.014-6.895 7.014-21.636v-14.385q-5.112 9.51-13.553 14.147-8.44 4.637-20.566 4.637-22.825 0-36.259-17.833-13.433-17.832-13.433-48.384 0-31.623 13.433-50.168 13.434-18.546 36.021-18.546 11.413 0 20.329 5.35t14.028 15.098v-17h34.832zM521.755 440.619h68.951v106.399h43.273v26.748H512.483v-26.748h43.391v-79.65h-34.119zm34.12-64.79h34.831v40.657h-34.832zm-70.14 101.524q-5.707-5.23-13.434-7.846-7.609-2.615-16.763-2.615-11.056 0-19.377 3.923-8.203 3.804-12.72 11.174-2.854 4.518-4.043 10.938-1.07 6.42-1.07 19.496v61.343h-34.832V440.619h34.833v20.685q5.111-11.412 15.692-17.594 10.58-6.301 24.727-6.301 7.133 0 13.91 1.783 6.894 1.665 13.076 4.993zM303.37 507.55q0-19.259-6.42-30.196-6.419-10.937-17.713-10.937-11.293 0-17.832 10.937-6.538 10.937-6.538 30.196t6.538 30.196q6.539 10.937 17.832 10.937 11.294 0 17.714-10.937 6.42-10.937 6.42-30.196zm-48.503-48.028q6.42-11.056 14.86-16.525 8.56-5.587 19.259-5.587 23.657 0 36.377 18.07 12.84 18.07 12.84 51.832 0 33.287-12.602 51.595-12.601 18.307-35.427 18.307-12.007 0-20.923-5.825-8.916-5.825-14.384-17.356v19.734h-34.714v-184.98h34.714zM74.76 527.283V440.62h34.833v81.315q0 14.384 4.042 20.566 4.042 6.182 13.433 6.182 9.392 0 14.623-8.322 5.35-8.321 5.35-23.3v-76.441h34.832v133.147H147.04v-19.734q-3.685 11.056-12.601 17.118-8.797 6.063-21.28 6.063-19.02 0-28.77-12.601-9.629-12.601-9.629-37.329zm63.72-141.944h28.057v29.245h-28.056zm-46.957 0h28.056v29.245H91.524z"/></svg>
