<svg width="1000" height="1000" xmlns="http://www.w3.org/2000/svg"><path d="M438.31 267.579h406.545c67.504 0 121.849 53.266 121.849 119.43v56.853c0 66.164-54.345 119.43-121.849 119.43H438.311c-67.505 0-121.85-53.266-121.85-119.43v-56.853c0-66.164 54.345-119.43 121.85-119.43zM764.554 661.42c0 42.526-34.474 77-77 77s-77-34.474-77-77 34.474-77 77-77 77 34.474 77 77zm-524 0c0 42.526-34.474 77-77 77s-77-34.474-77-77 34.474-77 77-77 77 34.474 77 77zm54.784-325.183v248.266l331.932.32c-23 18.791-37.359 44.691-37.171 78.685l-329.066-.231c-3.727-131.883-190.836-131.435-194.902-.763-28.103-.21-32.001-6.592-32.272-32.48v-99c-.353-44.241-5.878-15.037 26.872-98.934 33.698-89.434 24.408-81.167 54.888-83.475zM217.493 482.62l1.55-105.48-100.05 6.205c-18.239 1.222-18.39 1.337-24.818 22.492l-25.594 68.251c-8.598 20.934-7.23 27.103 16.287 24.043zm688.696 102.39l.19 55.778-64.607 22.87-56.727-.036c.231-32.343-13.21-59.545-37.041-78.653z"/></svg>
