<svg version="1" width="1000" height="1000" xmlns="http://www.w3.org/2000/svg"><path d="M228.793 612.35c-66.415 0-120.89 54.475-120.89 120.89 0 66.416 54.475 120.89 120.89 120.89 66.415 0 120.889-54.474 120.889-120.89 0-66.415-54.474-120.89-120.889-120.89zm0 59.16c34.443 0 61.728 27.287 61.728 61.73s-27.285 61.729-61.728 61.729-61.73-27.286-61.73-61.729 27.287-61.73 61.73-61.73zm508.793-226.067c-112.263 0-204.344 92.079-204.344 204.342 0 112.263 92.08 204.344 204.344 204.344 112.263 0 204.342-92.08 204.342-204.344 0-112.263-92.079-204.342-204.342-204.342zm0 100c58.22 0 104.342 46.123 104.342 104.342 0 58.22-46.123 104.344-104.342 104.344-58.22 0-104.344-46.125-104.344-104.344 0-58.22 46.125-104.342 104.344-104.342zM610.792 145.87c-30.554 5.217-45.869 20.123-58 37.063l-35.563 215.375H95.104c-45.268 6.836-36.312 27.405-36.312 43.938L93.104 652.37h30.25c23.848-79.307 185.479-76.436 210.625 0h181.375c-8.755-138.572 190.543-333.824 391.938-143.5V395.058h.5V145.87zm-12 55.188h220.75l.625 194.75-259.688 2.125 31.876-185.875c1.11-3.794 1.672-7.612 6.437-11z" color="#000"/></svg>
