<svg version="1" width="1000" height="1000" xmlns="http://www.w3.org/2000/svg"><path d="M316.799 275.455l-117.113 77.143 5.673 3.73 96.66 63.555h-71.054l-7.514 9.015H71.8l.226 26.957h16.547L31.5 569.415v69.757c0 12.598 14.858 25.72 26.2 25.685h884.6c11.118 0 26.2-15.554 26.2-25.685v-70.893l-57.695-112.424h15.601v-26.957H408.43l-8.598-9.015h-68.453l99.984-67.35L316.8 275.455zm-.053 10.738l98.611 66.346-98.54 66.373-100.872-66.322 100.801-66.397zm-211.55 169.662h35.269l-.111 115.92H91.09c-11.345 0-30.502-13.616-23.633-39.25l37.738-76.67zm63.825 0h43.418c6.082 4.269 11.42 7.986 11.42 11.737l-.078 164.855c-1.517 8.6-7.504 10.236-12.326 14.842H170.4c-4.85-4.737-10.971-6.288-12.507-14.992l-.079-164.856c0-3.706 5.218-7.382 11.207-11.586zm84.303 0h125.69c5.908 4.148 11.02 7.786 11.02 11.454l-.079 89.71c-1.495 8.47-7.317 10.206-12.1 14.655H255.041c-4.85-4.692-11.121-5.895-12.652-14.572l-.805.01.187-89.862c0-3.309 5.564-7.184 11.553-11.395zm165.79 0h127.032c5.993 4.205 11.211 7.882 11.211 11.588l-.078 89.711c-1.478 8.376-7.186 10.179-11.94 14.52H420.163c-4.806-4.432-10.805-5.903-12.195-14.438l-.022-90.27c0-3.23 5.347-7.015 11.168-11.11zm167.507 0H713.39c6.003 4.22 11.494 8.08 11.494 11.395l.187 89.775-.763-.01c-1.54 8.73-7.878 9.896-12.739 14.659H587.322c-4.778-4.317-10.656-5.864-12.031-14.303l-.02-90.27c0-3.268 5.448-7.096 11.35-11.246zm167.594 0h76.527c6.082 4.269 11.42 7.986 11.42 11.737l-.078 164.855c-1.53 8.672-7.609 10.251-12.451 14.948h-74.291c-4.845-4.707-10.94-6.268-12.47-14.948l-.077-164.855c0-3.75 5.338-7.468 11.42-11.737zm105.295 0h34.488l38.543 75.954c6.736 25.396-14.09 36.36-24.658 40.074l-48.262-.2-.111-115.828zM725.102 571.64v.035h-3.157c1.096-.014 2.092-.016 3.157-.035zm.925 75.732l3.053.024h-3.053v-.024zm132.54.002v.022h-2.692l2.691-.022zm-568.475 32.688c.38 59.2 85.172 59.2 85.172.533l-85.172-.533zm333.767 0c.378 59.2 85.17 59.2 85.17.533l-85.17-.533zm176.2 0c.38 59.2 85.171 59.2 85.171.533l-85.171-.533zm-685.633.017c.38 59.2 85.172 59.2 85.172.531l-85.172-.53zm100.607.399c-.424 13.852-2.596 20.28-6.254 26.617h71.332c-3.63-6.288-5.286-12.955-5.056-26.617h-60.022zm509.567.132c-.424 13.853-2.596 20.282-6.254 26.618h71.332c-3.63-6.288-5.287-12.956-5.057-26.618H724.6z"/></svg>
