<svg height="1000" width="1000" xmlns="http://www.w3.org/2000/svg"><path d="M161.721 240.38a25.977 25.977 0 0 0-14.415 4.361l-92.26 59.771A17.429 17.429 0 0 0 50 316.77v20.27c0 4.601 1.814 9.012 5.046 12.244l21.98 21.931c4.868 4.868 11.472 7.633 18.356 7.633h231.516v17.29l-86.24 15.403a26.025 26.025 0 0 0-16.81 10.839l-63.762 92.756c-4.083 5.932-9.863 10.394-16.606 12.893l-82.148 30.094A17.288 17.288 0 0 0 50 574.375v98.688c0 9.557 7.746 17.29 17.29 17.29h69.267c0-47.78 38.726-86.518 86.506-86.518 47.816 0 86.544 38.739 86.544 86.519H638.47c0-47.78 38.728-86.519 86.505-86.519 47.78 0 86.544 38.739 86.544 86.519h34.647L950 655.746V292.304c0-9.584-7.782-17.317-17.33-17.317H707.683L638.47 240.38zm35.393 34.607h121.152c4.803 0 8.632 3.865 8.632 8.671v51.885c0 4.794-3.83 8.659-8.632 8.659H197.114a8.644 8.644 0 0 1-8.658-8.659v-51.885a8.647 8.647 0 0 1 8.658-8.671zm259.594 103.861h138.443c4.832 0 8.697 3.84 8.697 8.633v259.594a8.663 8.663 0 0 1-8.697 8.671H456.708c-4.754 0-8.632-3.878-8.632-8.671V387.48a8.624 8.624 0 0 1 8.632-8.633zm225.026 0h121.152a8.624 8.624 0 0 1 8.632 8.633v86.544c0 4.79-3.878 8.658-8.632 8.658H681.734a8.646 8.646 0 0 1-8.658-8.658v-86.544c0-4.794 3.865-8.633 8.658-8.633zm-432.076 48.426h68.608c4.803 0 8.632 3.904 8.632 8.671v80.002c0 4.615-3.625 8.454-8.24 8.633l-133.853 5.958a6.937 6.937 0 0 1-7.25-6.604 6.712 6.712 0 0 1 1.165-4.148l56.526-84.782a17.317 17.317 0 0 1 14.412-7.73zm-26.595 193.852c-38.232 0-69.228 30.995-69.228 69.228 0 38.232 30.996 69.266 69.228 69.266 38.22 0 69.215-31.034 69.215-69.266 0-38.233-30.996-69.228-69.215-69.228zm501.911 0c-38.232 0-69.215 30.995-69.215 69.228 0 38.232 30.983 69.266 69.215 69.266s69.215-31.034 69.215-69.266c0-38.233-30.983-69.228-69.215-69.228z"/></svg>