<svg width="1000" height="1000" version="1" xmlns="http://www.w3.org/2000/svg"><path d="M186.912 140.459c-10.994 0-10.658 21.355 0 21.355h47.397c40.001 16.163 63.64 39.138 74.685 70.012h36.25c11.028-30.929 34.68-53.83 74.727-70.012h46.306c11.43 0 9.7-21.355 0-21.355zm158.332 91.367l-.017.047h-17.979v.11h-18.195l-.059-.157H152.5c-16.698 0-24.912 13.681-31.746 27.684-27.872 66.996-55.974 133.912-66.186 207.05-2.108 64.174-5.264 127.825-4.431 193.47 0 38.819 45.264 98.411 83.205 98.411h804.471c5.2 0 12.02-6.034 12.02-10.957l-.151-124.668c-189.548-34.728-354.846-133.147-438.508-339.06-12.057-30.904-40.687-40-67.164-51.93zm-61.906-70.012h87.385c-18.839 15.866-39.225 32.002-39.225 56.766H322.781c0-24.842-20.555-40.851-39.443-56.766zM150.209 274.945h281.674c18.33 0 34.471 69.116 47.7 104.475 4.209 11.49.89 29.875-8.007 29.875H105.172c-8.432 0-11.935-15.052-8.397-29.008 17.812-35.114 38.17-105.342 53.434-105.342zm392.36 151.907c20.608 19.978 42.722 47.39 61.83 59.921v121.754l-55.725-25.572c-5.3-51.382-5.79-103.725-6.106-156.103zm93.697 88.359c23.047 19.572 32.56 23.41 52.48 37.973h.002l.813 93.707-53.286-22.32c-1.235-51.382.308-56.982-.01-109.36zM138.305 550.8c18.482 0 33.465 14.982 33.465 33.465 0 18.482-14.983 33.464-33.465 33.464-18.483 0-33.465-14.982-33.465-33.464 0-18.483 14.982-33.465 33.465-33.465zm276.36 0c18.482 0 33.464 14.982 33.464 33.465 0 18.482-14.982 33.464-33.465 33.464-18.482 0-33.465-14.982-33.465-33.464 0-18.483 14.983-33.465 33.465-33.465zm301.585 19.021l52.024 21.27v77.027c-19.092-2.085-36.759-6.45-52.024-14.658zm73.58 31.617l41.389 10.633v69.844c-14.106-.632-28.044-2.276-41.389-7.473zm62.656 17.819l33.916 6.611v62.945c-11.725.758-22.956-.956-33.916-4.023zm52.024 10.06l27.305 3.737V696l-27.305-4.6zM377.826 775.615v34.49H224.395V775.72H119.67v34.806H50.166l-.103 49.016h489.136c85.315-38.427 249.567-43.022 410.801-48.912v-35.014z"/></svg>
