<svg width="1000px" height="1000px" viewBox="0 0 1000 1000" xmlns="http://www.w3.org/2000/svg"><path d="M721.25 540.114h39.58v43.62h-39.58zm-73.81 36.845c-5.863 3.407-12.162 5.943-18.897 7.607-6.735 1.743-13.986 2.615-21.75 2.615-20.523 0-36.569-6.18-48.138-18.542-11.568-12.36-17.353-29.476-17.353-51.345 0-21.95 5.824-39.104 17.472-51.465 11.648-12.44 27.733-18.66 48.256-18.66 7.131 0 13.985.832 20.562 2.496 6.656 1.663 13.272 4.239 19.849 7.725v31.854c-5.071-4.359-10.658-7.686-16.759-9.984a50.697 50.697 0 0 0-18.78-3.566c-11.33 0-20.046 3.605-26.147 10.816-6.102 7.21-9.152 17.472-9.152 30.784 0 13.311 3.05 23.533 9.152 30.664 6.1 7.132 14.817 10.697 26.148 10.697 6.735 0 13.034-1.109 18.898-3.328 5.864-2.297 11.41-5.744 16.64-10.34zM456.797 412.82v37.796h45.522v26.743h-45.522v62.994c0 5.942 1.426 10.221 4.279 12.836 2.931 2.536 7.765 3.803 14.5 3.803h26.743v26.743h-29.239c-19.968 0-33.478-3.17-40.53-9.508-7.052-6.419-10.578-18.265-10.578-35.538v-61.33h-33.993v-26.743h33.993V412.82zm-97.58 164.378c-8.083 3.328-16.324 5.824-24.723 7.488-8.4 1.664-17.274 2.496-26.624 2.496-22.265 0-39.301-5.943-51.108-17.829-11.727-11.964-17.59-29.159-17.59-51.583 0-21.711 5.665-38.866 16.996-51.465 11.33-12.598 26.782-18.898 46.354-18.898 19.73 0 35.023 5.864 45.878 17.59 10.935 11.649 16.402 28.09 16.402 49.326v14.144H274.59c.079 10.46 3.17 18.264 9.27 23.415 6.102 5.15 15.214 7.725 27.337 7.725 8.003 0 15.887-1.149 23.653-3.447 7.765-2.297 15.887-5.942 24.365-10.934zm-29.477-74.88c-.159-9.19-2.536-16.124-7.132-20.8-4.516-4.753-11.212-7.13-20.086-7.13-8.003 0-14.382 2.456-19.136 7.369-4.754 4.833-7.567 11.727-8.439 20.68z"/></svg>
